<?xml version="1.0" encoding="UTF-8"?>
<svg viewBox="0 0 160 100" xmlns="http://www.w3.org/2000/svg">
 <defs>
  <linearGradient id="b" x2="0" y1="401.66" y2="273.73" gradientUnits="userSpaceOnUse">
   <stop stop-color="#dcdcdc" offset="0"/>
   <stop stop-color="#fff" offset="1"/>
  </linearGradient>
  <radialGradient id="a" cx="-601.8" cy="260.15" r="2.5254" gradientTransform="matrix(1 0 0 1.2 0 -52.03)" gradientUnits="userSpaceOnUse">
   <stop stop-color="#722e00" offset="0"/>
   <stop stop-color="#722e00" offset=".5"/>
   <stop stop-color="#722e00" stop-opacity="0" offset="1"/>
  </radialGradient>
 </defs>
 <g transform="matrix(.42762 0 0 .42762 358.97 -81.52)">
  <path d="m-651.99 193.25c99.621-2.124 184 70.068 183.79 111.05-0.20429 39.982-78.668 109.16-180.63 109.16-101.25 0-186.7-74.042-188.07-111.05s85.292-107.04 184.91-109.16z" fill="#ad4700"/>
  <path d="m-652.21 236.22c90.63-3.7678 182.77 29.345 184.01 68.074s-100.85 72.716-184.71 69.783c-84.871-2.9388-183.95-48.28-183.99-71.667-0.03594-23.415 94.063-62.422 184.69-66.19z" fill="none" stroke="#722e00" stroke-linecap="round" stroke-linejoin="round" stroke-width="2"/>
  <path d="m-773.05 228.9c12.433 25.651 21.112 86.332 0.16214 147.83 10.189 6.5166 21.335 12.221 32.999 17.467 32.769-64.173 18.106-163.12 0.7123-182.22-11.946 4.8631-22.977 10.386-33.873 16.925z" fill="url(#b)"/>
  <path d="m-565.63 398.65c14.167-6.0077 27.468-13.038 39.418-20.643 29.017-45.669 21.436-107.31 2.1908-146.66-12.022-8.0817-25.607-15.494-40.359-21.582 20.06 32.446 30.891 133.21-1.2503 188.88z" fill="url(#b)"/>
  <path d="m-702.43 241.73c30.275-6.8042 81.037-7.4998 112.52-2.4556" fill="none" stroke="#ececec" stroke-linecap="round" stroke-width="10"/>
  <path d="m-702.43 241.73c30.275-6.8042 81.037-7.4998 112.52-2.4556" fill="none" stroke="#722e00" stroke-linecap="round" stroke-width="1.1"/>
  <path transform="matrix(.0093675 -1.8333 1.8333 .0093675 -1167 -853.1)" d="m-599.27 260.15a2.5254 3.0305 0 1 1 -5.0508 0 2.5254 3.0305 0 1 1 5.0508 0z" fill="url(#a)"/>
  <path transform="matrix(.0093675 -1.8333 1.8333 .0093675 -1168.8 -876.09)" d="m-599.27 260.15a2.5254 3.0305 0 1 1 -5.0508 0 2.5254 3.0305 0 1 1 5.0508 0z" fill="url(#a)"/>
  <path transform="matrix(.0093675 -1.8333 1.8333 .0093675 -1155.8 -878.04)" d="m-599.27 260.15a2.5254 3.0305 0 1 1 -5.0508 0 2.5254 3.0305 0 1 1 5.0508 0z" fill="url(#a)"/>
  <path transform="matrix(.0093675 -1.8333 1.8333 .0093675 -1151.9 -855.42)" d="m-599.27 260.15a2.5254 3.0305 0 1 1 -5.0508 0 2.5254 3.0305 0 1 1 5.0508 0z" fill="url(#a)"/>
  <path transform="matrix(.0093675 -1.8333 1.8333 .0093675 -1136 -856.09)" d="m-599.27 260.15a2.5254 3.0305 0 1 1 -5.0508 0 2.5254 3.0305 0 1 1 5.0508 0z" fill="url(#a)"/>
  <path transform="matrix(.0093675 -1.8333 1.8333 .0093675 -1139.5 -878.72)" d="m-599.27 260.15a2.5254 3.0305 0 1 1 -5.0508 0 2.5254 3.0305 0 1 1 5.0508 0z" fill="url(#a)"/>
  <path transform="matrix(.0093675 -1.8333 1.8333 .0093675 -1122.8 -879.89)" d="m-599.27 260.15a2.5254 3.0305 0 1 1 -5.0508 0 2.5254 3.0305 0 1 1 5.0508 0z" fill="url(#a)"/>
  <path transform="matrix(.0093675 -1.8333 1.8333 .0093675 -1120 -857.53)" d="m-599.27 260.15a2.5254 3.0305 0 1 1 -5.0508 0 2.5254 3.0305 0 1 1 5.0508 0z" fill="url(#a)"/>
  <path transform="matrix(.0093675 -1.8333 1.8333 .0093675 -1104 -856.94)" d="m-599.27 260.15a2.5254 3.0305 0 1 1 -5.0508 0 2.5254 3.0305 0 1 1 5.0508 0z" fill="url(#a)"/>
  <path transform="matrix(.0093675 -1.8333 1.8333 .0093675 -1105.8 -879.55)" d="m-599.27 260.15a2.5254 3.0305 0 1 1 -5.0508 0 2.5254 3.0305 0 1 1 5.0508 0z" fill="url(#a)"/>
  <path transform="matrix(.0093675 -1.8333 1.8333 .0093675 -1105.7 -879.8)" d="m-599.27 260.15a2.5254 3.0305 0 1 1 -5.0508 0 2.5254 3.0305 0 1 1 5.0508 0z" fill="url(#a)"/>
  <path transform="matrix(.0093675 -1.8333 1.8333 .0093675 -1088.5 -878.83)" d="m-599.27 260.15a2.5254 3.0305 0 1 1 -5.0508 0 2.5254 3.0305 0 1 1 5.0508 0z" fill="url(#a)"/>
  <path transform="matrix(.0093675 -1.8333 1.8333 .0093675 -1088.5 -856.36)" d="m-599.27 260.15a2.5254 3.0305 0 1 1 -5.0508 0 2.5254 3.0305 0 1 1 5.0508 0z" fill="url(#a)"/>
  <path transform="matrix(.0093675 -1.8333 1.8333 .0093675 -1070.8 -855.38)" d="m-599.27 260.15a2.5254 3.0305 0 1 1 -5.0508 0 2.5254 3.0305 0 1 1 5.0508 0z" fill="url(#a)"/>
  <path transform="matrix(.0093675 -1.8333 1.8333 .0093675 -1071.4 -876.85)" d="m-599.27 260.15a2.5254 3.0305 0 1 1 -5.0508 0 2.5254 3.0305 0 1 1 5.0508 0z" fill="url(#a)"/>
  <path transform="matrix(-.086232 -.84137 .99999 .0051095 -1024.2 -253.42)" d="m-572.32 276.19a14.268 4.2932 0 1 1 -26.842 0.3825" fill="none" stroke="#fff" stroke-linecap="round" stroke-linejoin="round" stroke-width="5.3434"/>
  <path transform="matrix(-.14496 -.84167 .99999 .0051095 -1044 -255.04)" d="m-572.32 276.19a14.268 4.2932 0 1 1 -26.842 0.3825" fill="none" stroke="#fff" stroke-linecap="round" stroke-linejoin="round" stroke-width="5.3434"/>
  <path transform="matrix(-.14496 -.84167 .99999 .0051095 -1028.6 -256.22)" d="m-572.32 276.19a14.268 4.2932 0 1 1 -26.842 0.3825" fill="none" stroke="#fff" stroke-linecap="round" stroke-linejoin="round" stroke-width="5.3434"/>
  <path transform="matrix(-.086232 -.84137 .99999 .0051095 -978.01 -256.97)" d="m-572.32 276.19a14.268 4.2932 0 1 1 -26.842 0.3825" fill="none" stroke="#fff" stroke-linecap="round" stroke-linejoin="round" stroke-width="5.3434"/>
  <path transform="matrix(-.042187 -.84115 .99999 .0051095 -935.55 -257.01)" d="m-572.32 276.19a14.268 4.2932 0 1 1 -26.842 0.3825" fill="none" stroke="#fff" stroke-linecap="round" stroke-linejoin="round" stroke-width="5.3434"/>
  <path transform="matrix(.016539 -.84084 .99999 .0051095 -884.75 -255.74)" d="m-572.32 276.19a14.268 4.2932 0 1 1 -26.842 0.3825" fill="none" stroke="#fff" stroke-linecap="round" stroke-linejoin="round" stroke-width="5.3434"/>
  <path transform="matrix(.016539 -.84084 .99999 .0051095 -867.59 -254.64)" d="m-572.32 276.19a14.268 4.2932 0 1 1 -26.842 0.3825" fill="none" stroke="#fff" stroke-linecap="round" stroke-linejoin="round" stroke-width="5.3434"/>
  <path d="m-647.34 193.19c-1.5489-0.0027-3.0997 0.02931-4.6562 0.0625-31.071 0.66246-60.884 7.938-87.156 18.75l-0.03125-0.03125c-11.946 4.8631-22.979 10.399-33.875 16.938 4e-3 0.00825-4e-3 0.02299 0 0.03125-39.271 23.429-64.592 53.338-63.844 73.469 6.4e-4 0.41622 0.031 0.85149 0.09375 1.2812 1.7242 19.827 26.326 49.482 63.969 72.969-0.00747 0.02196-0.02377 0.04054-0.03125 0.0625 10.189 6.5166 21.336 12.222 33 17.469 0.03598-0.07045 0.05789-0.14821 0.09375-0.21875 27.131 11.732 58.192 19.5 90.938 19.5 30.554 0 59.014-6.2221 83.875-16-0.2203 0.39321-0.43176 0.79865-0.65625 1.1875 14.167-6.0077 27.456-13.052 39.406-20.656 0.08512-0.13397 0.16551-0.272 0.25-0.40625 32.734-21.009 53.906-47.364 57.281-67.875 0.38337-1.7913 0.52697-3.622 0.46875-5.4375 0.10587-20.72-21.414-49.399-55.594-72.438-0.07863-0.16231-0.13973-0.33844-0.21875-0.5-12.022-8.0818-25.592-15.475-40.344-21.562 0.1014 0.16402 0.21157 0.33251 0.3125 0.5-25.012-10.366-53.404-17.042-83.281-17.094z" fill="none" stroke="#000" stroke-linecap="round" stroke-linejoin="round" stroke-width="5.1"/>
 </g>
 <g transform="matrix(.19225 0 0 .19225 15.345 -21.847)">
  <path d="m260.06 300.91c-19.822 1.4403-40.015 4.6249-58.031 13.312-8.6434 8.23-16.272 20.21-14.188 32.656 3.5048 8.6841 15.021 7.9544 22.031 4.5312 7.8721-2.2502 19.499-3.4955 22.125-12.625-1.4225-2.5357 5.4353-2.6438 4.8438-2.4062-5.0314 4.51-8.0467 11.579-13.531 15.219-8.0288 0.94081-19.282-0.20363-23.25 8.6562-1.977 6.8867 3.3664 13.515 9.4375 16-6.5932 10.986-11.679 26.357-3.25 37.75 11.807 15.695 34.758 16.513 52.125 10.875 13.852-4.2314 29.215-11.508 34.938-25.594 6.9557 12.426 18.535 24.622 33.531 25.594 7.9754 0.03377 14.64-6.1753 18.438-12.062 7.6494 8.5044 20.658 15.792 31.75 9.5 5.0842-2.739 8.3495-7.8118 10.625-12.969 9.4526 9.1143 23.329 18.179 36.906 12.719 6.5317-3.0929 10.143-10.386 11.125-17.344 6.6032 9.9494 19.878 18.466 31.844 12.594 10.181-5.2089 13.863-17.073 16.719-27.25 2.4455 0.24409 5.9178-2.1885 7.4375-1.3438 1.2615 11.195 6.948 24.787 19.188 27.219 6.654 0.80851 12.283-5.0914 12.219-11.594 0.67529-3.7955 1.3563-5.2289 2.25-0.90625 3.5762 10.719 16.845 19.259 27.562 12.906 7.5662-5.3394 11.42-14.44 16.062-22.125 1.5572-4.7343-2.9294-8.6594-5-12.406-3.211-4.4088-9.2333-1.4591-10.815 2.7946-1.6654 1.9989-4.2878 6.3584-6.5595 6.1116-1.1841-9.2443 9.4353-17.967 3.4688-26.969-4.4106-5.8272-10.713-13.811-19.031-11.312-6.6787 1.7972-10.732 8.6085-14.969 12.812-5.0439-10.615-23.58-10.42-27.188 1.3438-1.676 1.2906-4.802 2.7501-6.6562 2.7188-6.8746-17.023-31.903-22.38-45.188-9.5625-4.2959 3.7528-7.5272 8.775-8.875 14.344-5.4928-8.5682-13.116-15.286-18.594-23.719-5.7964-6.0816-19.346-5.2922-20.75 4.2188-0.03696 4.0412 1.8332 8.6351-1.7812 11.719-6.0647 11.503-9.8763 25.04-19.812 33.781-5.2663-1.0015-11.116-6.8957-9.625-12.406 10.037-19.958 13.133-46.833-1.4375-65.375-5.4672-7.8953-17.759-4.4935-21.406 3.4375-8.4963 14.199-8.7938 31.857-7.375 47.969 0.51278 6.8623 3.4475 13.733 4.75 20.031-2.8308 4.7732-11.043 8.2485-14.688 2.7188-1.1018-4.7535 4.6222-7.5164 5.1875-12.094 2.8487-6.7478 2.1781-15.685-2.25-20.969 9.3994-5.1098 6.7972-20.049-2.0625-24.469-3.9524-2.9399-10.32-3.007-14.156-1.8125 3.7881-15.757-9.1182-31.071-24.211-34.059-6.4196-1.866-13.2-2.3222-19.883-2.16zm5.4062 31.062c4.9021 0.57269 11.905-0.34869 14.906 4.25-0.64789 4.9234-7.4555 5.5016-11.156 7.2812-2.8682 1.0144-5.9065 1.7692-8.875 2.3125 3.2175-3.6972 6.4719-8.8042 4.5938-13.875l0.53125 0.03125zm31.906 16.469c-0.39617 4.4822 3.2861 9.2012 5.1562 11.781-7.6616 3.226-11.333 11.961-12.562 19.438-6.2203-8.2656-16.345-12.2-26.094-14.562 12.265-2.7369 24.943-7.4789 33.5-16.656zm157.41 24.812c11.809-0.01819 17.382 20.155 5.625 24.531-7.6304 1.2281-11.617-8.2442-12.469-14.406-0.83762-4.4516 1.5135-10.491 6.8438-10.125zm-51.688 6.875c4.684 3.8177 11.032 11.899 7.0938 17.688-3.6438-3.3906-7.4767-6.7103-11.812-9.1875 1.5782-2.8239 3.0839-5.7387 4.7188-8.5zm-164.97 0.3125c9.1988 2.0448 20.533 0.88539 27.625 7.4375-4.4167 5.392-12.265 7.0791-18.812 8.7812-5.324 0.91276-13.115 1.0756-16.188-4.0938 0.03624-4.9161 5.0453-7.9859 6.7812-12.25l0.59375 0.125z" fill="#803400"/>
  <path d="m261.88 304.87c-1.1867 0.00588-2.337 0.02713-3.5017 0.07147-18.69 1.5369-37.337 5.0014-53.597 12.149-7.194 6.595-12.896 15.968-13.65 26.441 0.6353 7.0777 9.4974 7.1908 13.721 5.2168 7.7004-2.6388 17.519-3.2844 22.94-9.1473 1.5323-2.6157-5.02-5.2477 0.5717-5.3598 15.873-4.3997 33.564-9.6779 51.739-3.9305 7.0548 3.1183 4.4145 11.552-0.71463 13.149-8.1992 4.7682-18.292 6.3129-28.014 8.0754 2.6334-6.1597 10.29-10.603 10.291-17.794-3.9108-5.0767-10.918-1.0105-15.007 0.35731-9.2206 4.4224-13.555 14.478-20.296 20.867-6.9846 2.343-18.503-0.62926-22.439 6.2888-1.8821 6.1788 5.5772 12.248 11.649 12.292-5.6204 10.913-15.396 24.65-5.7171 38.805 11.576 13.727 30.96 12.968 44.45 9.5761 14.609-4.4618 31.074-10.837 35.946-26.013 2.8908-11.37-9.3797-21.985-20.439-24.869-8.7968-3.0508-19.14-4.5487-27.228-6.2173 20.48-3.1283 43.85-6.6463 55.384-23.511 6.6448-9.2179 1.2904-25.384-11.005-31.158-8.0031-4.304-16.777-5.3294-25.084-5.2883zm84.041 16.722c-9.7749 3.6444-11.299 13.475-13.578 21.796-2.6483 15.423-3.0711 32.39 4.7166 50.525-4.1092 4.1415-7.5072 11.647-17.937 8.7185-6.6009-2.5011-7.1159-8.6737-4.788-11.148 4.0425-6.5341 8.3444-13.972 4.5022-23.44-3.874-6.202-13.461-5.7847-16.651-3.2158-7.3687 5.6772-9.0337 15.305-8.4327 24.869 2.4822 9.6493 10.856 21.332 23.297 28.657 10.345 5.2343 18.303 1.0282 21.796-3.859 2.3065-2.786 3.8665-5.9189 5.2883-9.2188 5.1637 7.1675 15.647 16.365 25.298 15.436 10.95-1.887 13.675-10.922 16.722-18.438 38.572 40.462 60.133 2.8086 34.946-31.372-4.1518-5.7338-11.295-11.184-13.578-17.008-5.3051-5.4473-14.739-3.7045-14.721 1.072-0.47424 3.389 2.2642 7.751-0.71463 10.219-6.748 13.009-11.496 27.6-21.939 38.304-4.1256 2.9155-12.492-3.0646-14.579-7.5036-3.3046-4.3712-3.3297-8.0461-0.92902-10.862 6.2198-14.977 11.117-31.784 3.859-51.311-1.8586-3.3339-5.2652-12.841-12.578-12.22zm-36.661 18.652c-0.49936-0.01779-0.96349 0.02646-1.4293 0.07146-6.7906 1.2974-8.2262 8.3734-4.2878 14.65 4.5963 6.1257 15.595 7.4147 17.294 2.7156 2.9058-3.8779 2.2106-12.423-6.8605-16.365-1.6069-0.66142-3.2186-1.0186-4.7166-1.072zm39.805 0.50024v0.14293c3.4949 11.533 1.207 21.721-1.7151 31.087-1.947-11.037-3.5074-22.918 1.7151-31.229zm184.73 15.222c-5.6192 0.32201-7.7485 5.2288-11.005 7.718-7.4784 7.6526-10.663 17.652-15.15 27.013-2.0071-6.9377 2.3495-12.168 4.0734-17.794 2.1906-2.3802 2.1188-8.0085-4.3593-10.362-10.094-3.5074-14.421 2.6423-15.579 8.0754-11.923 3.4586-11.386 5.7896-14.721-3.0015-4.2494-6.3291-12.884-11.276-23.083-11.077-0.67994 0.01328-1.3792 0.01118-2.0724 0.07146-54.07 15.177 14.949 103.67 28.871 29.371 5.9972 0.98512 14.238-3.7728 14.936-4.2878-2.0132 8.2744 4.9244 31.021 17.08 30.158 7.0104-0.4798 5.2364-7.8008 7.4322-11.72 1.7528-6.5149 4.3957-12.529 8.2898-17.937-0.20586 8.6241-4.1064 18.382 6.5746 28.442 6.5079 5.773 15.018 4.3394 17.723 0.71464 5.3603-5.6752 8.8835-12.506 12.792-19.081-2.6667-3.4694-5.4322-13.029-7.861-6.6461-4.0912 3.3671-5.7036 9.215-12.506 10.291-3.4259-1.8389-2.6094-5.7186-2.6441-7.7895 0.24437-7.0812 5.0232-12.273 5.5741-19.152-1.8734-4.4238-6.2046-9.7548-11.863-12.792-0.47523-0.07622-0.92338-0.19161-1.3578-0.21439-0.40728-0.02136-0.7688-0.02147-1.1434 0zm-79.181 13.292c14.777-0.65648 23.373 24.25 8.79 31.658-15.48 7.8638-28.352-26.618-11.791-31.158 1.035-0.28382 2.0163-0.45647 3.0015-0.50024zm-52.954 4.7166c11.157 7.788 19.314 20.319 9.3617 29.514-4.3932-3.2031-13.052-12.006-18.366-12.863 3.0632-5.5303 6.2115-10.991 9.0044-16.651zm-165.44 1.858c0.23424-0.00504 0.48913 0.08795 0.78609 0.21439 10.751 2.468 23.118 1.578 32.659 8.8614 2.2915 6.273-5.3364 9.1899-9.2902 11.72-8.8591 3.53-21.026 7.7426-31.229 0.7861-6.8289-6.322 1.861-13.077 4.0019-17.794 1.1353-0.82801 1.4332-3.7523 3.0729-3.7876z" fill="#d7cc62"/>
 </g>
</svg>
