<?xml version="1.0" encoding="UTF-8" standalone="no"?>
<!-- Created with Inkscape (http://www.inkscape.org/) -->

<svg
   version="1.1"
   id="svg2"
   width="3026.5732"
   height="2476.28"
   viewBox="0 0 3026.5732 2476.28"
   sodipodi:docname="bola.svg"
   inkscape:version="1.1.2 (0a00cf5339, 2022-02-04)"
   xmlns:inkscape="http://www.inkscape.org/namespaces/inkscape"
   xmlns:sodipodi="http://sodipodi.sourceforge.net/DTD/sodipodi-0.dtd"
   xmlns="http://www.w3.org/2000/svg"
   xmlns:svg="http://www.w3.org/2000/svg">
  <defs
     id="defs6" />
  <sodipodi:namedview
     id="namedview4"
     pagecolor="#ffffff"
     bordercolor="#000000"
     borderopacity="0.25"
     inkscape:showpageshadow="2"
     inkscape:pageopacity="0.0"
     inkscape:pagecheckerboard="0"
     inkscape:deskcolor="#d1d1d1"
     inkscape:pageshadow="2"
     showgrid="false"
     inkscape:zoom="0.32589206"
     inkscape:cx="859.18018"
     inkscape:cy="1238.14"
     inkscape:window-width="1850"
     inkscape:window-height="1016"
     inkscape:window-x="0"
     inkscape:window-y="0"
     inkscape:window-maximized="1"
     inkscape:current-layer="g10" />
  <g
     id="g8"
     inkscape:groupmode="layer"
     inkscape:label="ink_ext_XXXXXX"
     transform="matrix(1.3333333,0,0,-1.3333333,0,2476.28)">
    <g
       id="g10"
       transform="scale(0.1)">
      <path
         d="m 13230.9,12145.2 c -726.2,591.9 -1544,990 -2502.1,1221.2 213.8,182.3 389.8,332.3 565.9,482.3 59.6,50.8 124.6,37.8 194.3,25.7 643.8,-111 1776.4,-700.8 2258.4,-1187.5 -166.5,-174.6 -333.7,-350 -516.5,-541.7 z m -686.1,-803.3 c -134.1,-156.2 -234.2,-398.1 -399.9,-455.1 -164.5,-56.7 -314.8,189 -475.2,295.6 -603.3,400.8 -1250.4,698.2 -1956.88,862.7 -36.92,8.6 -72.65,22.7 -161.85,51.1 155.94,187.2 288.55,343.8 417.91,503 57.32,70.5 120.82,79.4 207.92,59.3 867.4,-198.7 1643.9,-583.3 2345,-1127.3 81.5,-63.2 90.1,-111.3 23,-189.3 z m -1057,-1408.18 c -117.5,-142.95 -212.9,-303.91 -337.3,-484.95 -768.2,616.63 -1599.83,1015.13 -2560.86,1208.53 111.05,226.5 243.07,416.4 371.54,608.4 48.73,72.9 115.77,55.2 184.29,39 286.48,-68.5 566.76,-154.8 840.54,-263.5 523.29,-207.6 1004.99,-485.8 1453.39,-825.4 116.6,-88.3 151.8,-155.7 48.4,-282.08 z m 5146.9,5728.98 c -36.4,92.2 -74.4,181.9 -135.9,259.9 -84.2,107.2 -176.3,134.4 -303.6,55.5 -729.5,-453.3 -1382.5,-999.4 -1998.3,-1609 249,-184.9 516.3,-316.3 743.1,-537.8 -183.1,-169.8 -359.4,-333.4 -540.2,-501.5 -671.6,550.2 -1411.4,915.3 -2223,1143.9 44.9,97.7 123.8,124.9 186.4,168.3 427.9,297.1 430,301 925.6,124.9 134.7,-47.8 233.9,-33.6 347.3,52.6 485.8,369.5 1003.9,690.2 1542.3,977 266.7,141.8 541.9,267.9 828.7,409 -142.4,92.5 -281.8,77.1 -416.2,75.6 -1279.7,-12.7 -2526.9,-219.4 -3716.5,-694.3 C 8385.27,14194 6380.51,11638.1 5953.75,7896.5 c -178.1,-1560 18.6,-3099 476.08,-4601.1 76.49,-251.1 157.42,-504.2 308.63,-731.3 72.06,81.8 65.56,174.3 75.61,260.5 51.68,439.2 129.65,873.9 217.66,1306.9 326.05,1602.8 822.52,3150.7 1499.44,4640.06 91.85,202.31 85.94,196.11 -126.41,279.09 -187.84,73.54 -399.59,73.54 -585.95,181.93 67.04,137.04 125.52,261.08 188.43,382.76 115.48,223.58 117.54,227.12 360.01,168.35 624.94,-151.51 1221.53,-378.04 1754.65,-741.01 658.3,-448.03 626.1,-240.7 147.6,-961.58 -221.2,144.1 -444.46,285.3 -662.71,433.8 -99.23,67.64 -158.3,46.4 -206.14,-56.7 C 9371.7,8395.9 9333.31,8338.3 9300.23,8278 8321.18,6495.1 7601.44,4612 7124.76,2635.6 c -76.49,-317.5 -39.57,-361.5 281.16,-342.9 78.27,4.7 156.83,13 234.51,26 310.1,51.4 620.8,99.2 929.13,159.5 1523.64,298 2980.84,778.8 4321.44,1577.7 1643.5,979 2891,2315.7 3658.9,4078.3 435.9,1000.04 663.6,2050.3 741.3,3137.4 108.1,1513.9 -102.8,2977.3 -656.5,4391.1"
         style="fill:#865b5b;fill-opacity:1;fill-rule:nonzero;stroke:none"
         id="path14" />
      <path
         sodipodi:type="star"
         style="fill:#865b5b;fill-opacity:1;fill-rule:evenodd"
         id="path1507"
         inkscape:flatsided="true"
         sodipodi:sides="3"
         sodipodi:cx="1588.3446"
         sodipodi:cy="1756.7885"
         sodipodi:r1="242.85245"
         sodipodi:r2="121.42622"
         sodipodi:arg1="0.78312964"
         sodipodi:arg2="1.8303272"
         inkscape:rounded="0"
         inkscape:randomized="0"
         d="m 1760.4563,1928.1211 -406.546,-107.9458 296.7568,-298.1063 z"
         transform="matrix(5.8296219,0,0,-5.5953477,4022.8139,14511.971)"
         inkscape:transform-center-x="24.221118"
         inkscape:transform-center-y="-23.644628" />
      <path
         sodipodi:type="star"
         style="fill:#865b5b;fill-opacity:1;fill-rule:evenodd"
         id="path1507-3"
         inkscape:flatsided="true"
         sodipodi:sides="3"
         sodipodi:cx="1588.3446"
         sodipodi:cy="1756.7885"
         sodipodi:r1="242.85245"
         sodipodi:r2="121.42622"
         sodipodi:arg1="0.78312964"
         sodipodi:arg2="1.8303272"
         inkscape:rounded="0"
         inkscape:randomized="0"
         transform="matrix(4.1146449,4.1296717,3.9637132,-3.9492903,3536.8668,11382.371)"
         inkscape:transform-center-x="-89.483974"
         inkscape:transform-center-y="-249.30364"
         d="m 1760.4563,1928.1211 -406.546,-107.9458 296.7568,-298.1063 z" />
      <path
         sodipodi:type="star"
         style="fill:#865b5b;fill-opacity:1;fill-rule:evenodd"
         id="path1507-7"
         inkscape:flatsided="true"
         sodipodi:sides="3"
         sodipodi:cx="1588.3446"
         sodipodi:cy="1756.7885"
         sodipodi:r1="242.85245"
         sodipodi:r2="121.42622"
         sodipodi:arg1="0.78312964"
         sodipodi:arg2="1.8303272"
         inkscape:rounded="0"
         inkscape:randomized="0"
         transform="matrix(3.6165174,4.5722307,4.3884871,-3.4711809,-3134.3324,13650.77)"
         inkscape:transform-center-x="-37.977655"
         inkscape:transform-center-y="12.813903"
         d="m 1760.4563,1928.1211 -406.546,-107.9458 296.7568,-298.1063 z" />
      <path
         sodipodi:type="star"
         style="fill:#865b5b;fill-opacity:1;fill-rule:evenodd"
         id="path1507-7-5"
         inkscape:flatsided="true"
         sodipodi:sides="3"
         sodipodi:cx="1588.3446"
         sodipodi:cy="1756.7885"
         sodipodi:r1="242.85245"
         sodipodi:r2="121.42622"
         sodipodi:arg1="0.78312964"
         sodipodi:arg2="1.8303272"
         inkscape:rounded="0"
         inkscape:randomized="0"
         transform="matrix(-0.23950804,5.8246998,5.5906234,0.22988298,-3282.7307,-1818.2201)"
         inkscape:transform-center-x="27.367938"
         inkscape:transform-center-y="20.603421"
         d="m 1760.4563,1928.1211 -406.546,-107.9458 296.7568,-298.1063 z" />
    </g>
  </g>
</svg>
