<?xml version="1.0" encoding="UTF-8"?>
<svg viewBox="0 0 160 100" xmlns="http://www.w3.org/2000/svg">
 <defs>
  <linearGradient id="b" x2="0" y1="401.66" y2="273.73" gradientUnits="userSpaceOnUse">
   <stop stop-color="#dcdcdc" offset="0"/>
   <stop stop-color="#fff" offset="1"/>
  </linearGradient>
  <radialGradient id="a" cx="-601.8" cy="260.15" r="2.5254" gradientTransform="matrix(1 0 0 1.2 0 -52.03)" gradientUnits="userSpaceOnUse">
   <stop stop-color="#722e00" offset="0"/>
   <stop stop-color="#722e00" offset=".5"/>
   <stop stop-color="#722e00" stop-opacity="0" offset="1"/>
  </radialGradient>
 </defs>
 <g transform="matrix(.42762 0 0 .42762 358.97 -81.52)">
  <path d="m-651.99 193.25c99.621-2.124 184 70.068 183.79 111.05-0.20429 39.982-78.668 109.16-180.63 109.16-101.25 0-186.7-74.042-188.07-111.05s85.292-107.04 184.91-109.16z" fill="#401103"/>
  <path d="m-652.21 236.22c90.63-3.7678 182.77 29.345 184.01 68.074s-100.85 72.716-184.71 69.783c-84.871-2.9388-183.95-48.28-183.99-71.667-0.03594-23.415 94.063-62.422 184.69-66.19z" fill="none" stroke="#722e00" stroke-linecap="round" stroke-linejoin="round" stroke-width="2"/>
  <path d="m-773.05 228.9c12.433 25.651 21.112 86.332 0.16214 147.83 10.189 6.5166 21.335 12.221 32.999 17.467 32.769-64.173 18.106-163.12 0.7123-182.22-11.946 4.8631-22.977 10.386-33.873 16.925z" fill="#FFD700"/>
  <path d="m-565.63 398.65c14.167-6.0077 27.468-13.038 39.418-20.643 29.017-45.669 21.436-107.31 2.1908-146.66-12.022-8.0817-25.607-15.494-40.359-21.582 20.06 32.446 30.891 133.21-1.2503 188.88z" fill="#FFD700"/>
  <path d="m-702.43 241.73c30.275-6.8042 81.037-7.4998 112.52-2.4556" fill="none" stroke="#ad501c" stroke-linecap="round" stroke-width="10"/>
  <path d="m-702.43 241.73c30.275-6.8042 81.037-7.4998 112.52-2.4556" fill="none" stroke="#722e00" stroke-linecap="round" stroke-width="1.1"/>
  <path transform="matrix(.0093675 -1.8333 1.8333 .0093675 -1167 -853.1)" d="m-599.27 260.15a2.5254 3.0305 0 1 1 -5.0508 0 2.5254 3.0305 0 1 1 5.0508 0z" fill="url(#a)"/>
  <path transform="matrix(.0093675 -1.8333 1.8333 .0093675 -1168.8 -876.09)" d="m-599.27 260.15a2.5254 3.0305 0 1 1 -5.0508 0 2.5254 3.0305 0 1 1 5.0508 0z" fill="url(#a)"/>
  <path transform="matrix(.0093675 -1.8333 1.8333 .0093675 -1155.8 -878.04)" d="m-599.27 260.15a2.5254 3.0305 0 1 1 -5.0508 0 2.5254 3.0305 0 1 1 5.0508 0z" fill="url(#a)"/>
  <path transform="matrix(.0093675 -1.8333 1.8333 .0093675 -1151.9 -855.42)" d="m-599.27 260.15a2.5254 3.0305 0 1 1 -5.0508 0 2.5254 3.0305 0 1 1 5.0508 0z" fill="url(#a)"/>
  <path transform="matrix(.0093675 -1.8333 1.8333 .0093675 -1136 -856.09)" d="m-599.27 260.15a2.5254 3.0305 0 1 1 -5.0508 0 2.5254 3.0305 0 1 1 5.0508 0z" fill="url(#a)"/>
  <path transform="matrix(.0093675 -1.8333 1.8333 .0093675 -1139.5 -878.72)" d="m-599.27 260.15a2.5254 3.0305 0 1 1 -5.0508 0 2.5254 3.0305 0 1 1 5.0508 0z" fill="url(#a)"/>
  <path transform="matrix(.0093675 -1.8333 1.8333 .0093675 -1122.8 -879.89)" d="m-599.27 260.15a2.5254 3.0305 0 1 1 -5.0508 0 2.5254 3.0305 0 1 1 5.0508 0z" fill="url(#a)"/>
  <path transform="matrix(.0093675 -1.8333 1.8333 .0093675 -1120 -857.53)" d="m-599.27 260.15a2.5254 3.0305 0 1 1 -5.0508 0 2.5254 3.0305 0 1 1 5.0508 0z" fill="url(#a)"/>
  <path transform="matrix(.0093675 -1.8333 1.8333 .0093675 -1104 -856.94)" d="m-599.27 260.15a2.5254 3.0305 0 1 1 -5.0508 0 2.5254 3.0305 0 1 1 5.0508 0z" fill="url(#a)"/>
  <path transform="matrix(.0093675 -1.8333 1.8333 .0093675 -1105.8 -879.55)" d="m-599.27 260.15a2.5254 3.0305 0 1 1 -5.0508 0 2.5254 3.0305 0 1 1 5.0508 0z" fill="url(#a)"/>
  <path transform="matrix(.0093675 -1.8333 1.8333 .0093675 -1105.7 -879.8)" d="m-599.27 260.15a2.5254 3.0305 0 1 1 -5.0508 0 2.5254 3.0305 0 1 1 5.0508 0z" fill="url(#a)"/>
  <path transform="matrix(.0093675 -1.8333 1.8333 .0093675 -1088.5 -878.83)" d="m-599.27 260.15a2.5254 3.0305 0 1 1 -5.0508 0 2.5254 3.0305 0 1 1 5.0508 0z" fill="url(#a)"/>
  <path transform="matrix(.0093675 -1.8333 1.8333 .0093675 -1088.5 -856.36)" d="m-599.27 260.15a2.5254 3.0305 0 1 1 -5.0508 0 2.5254 3.0305 0 1 1 5.0508 0z" fill="url(#a)"/>
  <path transform="matrix(.0093675 -1.8333 1.8333 .0093675 -1070.8 -855.38)" d="m-599.27 260.15a2.5254 3.0305 0 1 1 -5.0508 0 2.5254 3.0305 0 1 1 5.0508 0z" fill="url(#a)"/>
  <path transform="matrix(.0093675 -1.8333 1.8333 .0093675 -1071.4 -876.85)" d="m-599.27 260.15a2.5254 3.0305 0 1 1 -5.0508 0 2.5254 3.0305 0 1 1 5.0508 0z" fill="url(#a)"/>
  <path transform="matrix(-.086232 -.84137 .99999 .0051095 -1024.2 -253.42)" d="m-572.32 276.19a14.268 4.2932 0 1 1 -26.842 0.3825" fill="none" stroke="#994d18" stroke-linecap="round" stroke-linejoin="round" stroke-width="5.3434"/>
  <path transform="matrix(-.14496 -.84167 .99999 .0051095 -1044 -255.04)" d="m-572.32 276.19a14.268 4.2932 0 1 1 -26.842 0.3825" fill="none" stroke="#994d18" stroke-linecap="round" stroke-linejoin="round" stroke-width="5.3434"/>
  <path transform="matrix(-.14496 -.84167 .99999 .0051095 -1028.6 -256.22)" d="m-572.32 276.19a14.268 4.2932 0 1 1 -26.842 0.3825" fill="none" stroke="#994d18" stroke-linecap="round" stroke-linejoin="round" stroke-width="5.3434"/>
  <path transform="matrix(-.086232 -.84137 .99999 .0051095 -978.01 -256.97)" d="m-572.32 276.19a14.268 4.2932 0 1 1 -26.842 0.3825" fill="none" stroke="#994d18" stroke-linecap="round" stroke-linejoin="round" stroke-width="5.3434"/>
  <path transform="matrix(-.042187 -.84115 .99999 .0051095 -935.55 -257.01)" d="m-572.32 276.19a14.268 4.2932 0 1 1 -26.842 0.3825" fill="none" stroke="#994d18" stroke-linecap="round" stroke-linejoin="round" stroke-width="5.3434"/>
  <path transform="matrix(.016539 -.84084 .99999 .0051095 -884.75 -255.74)" d="m-572.32 276.19a14.268 4.2932 0 1 1 -26.842 0.3825" fill="none" stroke="#994d18" stroke-linecap="round" stroke-linejoin="round" stroke-width="5.3434"/>
  <path transform="matrix(.016539 -.84084 .99999 .0051095 -867.59 -254.64)" d="m-572.32 276.19a14.268 4.2932 0 1 1 -26.842 0.3825" fill="none" stroke="#994d18" stroke-linecap="round" stroke-linejoin="round" stroke-width="5.3434"/>
  <path d="m-647.34 193.19c-1.5489-0.0027-3.0997 0.02931-4.6562 0.0625-31.071 0.66246-60.884 7.938-87.156 18.75l-0.03125-0.03125c-11.946 4.8631-22.979 10.399-33.875 16.938 4e-3 0.00825-4e-3 0.02299 0 0.03125-39.271 23.429-64.592 53.338-63.844 73.469 6.4e-4 0.41622 0.031 0.85149 0.09375 1.2812 1.7242 19.827 26.326 49.482 63.969 72.969-0.00747 0.02196-0.02377 0.04054-0.03125 0.0625 10.189 6.5166 21.336 12.222 33 17.469 0.03598-0.07045 0.05789-0.14821 0.09375-0.21875 27.131 11.732 58.192 19.5 90.938 19.5 30.554 0 59.014-6.2221 83.875-16-0.2203 0.39321-0.43176 0.79865-0.65625 1.1875 14.167-6.0077 27.456-13.052 39.406-20.656 0.08512-0.13397 0.16551-0.272 0.25-0.40625 32.734-21.009 53.906-47.364 57.281-67.875 0.38337-1.7913 0.52697-3.622 0.46875-5.4375 0.10587-20.72-21.414-49.399-55.594-72.438-0.07863-0.16231-0.13973-0.33844-0.21875-0.5-12.022-8.0818-25.592-15.475-40.344-21.562 0.1014 0.16402 0.21157 0.33251 0.3125 0.5-25.012-10.366-53.404-17.042-83.281-17.094z" fill="none" stroke="#000" stroke-linecap="round" stroke-linejoin="round" stroke-width="5.1"/>
 </g>
 
</svg>
